<?xml version="1.0" encoding="utf-8"?>
<!-- Generator: Adobe Illustrator 21.0.0, SVG Export Plug-In . SVG Version: 6.00 Build 0)  -->
<svg version="1.1" id="Layer_1" xmlns="http://www.w3.org/2000/svg" xmlns:xlink="http://www.w3.org/1999/xlink" x="0px" y="0px"
	 viewBox="0 0 1400 980" enable-background="new 0 0 1400 980" xml:space="preserve">
<g>
	<g>
		<g>
			<rect id="XMLID_1_" x="0" y="0" fill="#7895A4" width="1400" height="980"/>
		</g>
	</g>
	<g>
		<g>
			<rect id="XMLID_7_" x="0" y="269.9" fill="#8DA8B2" width="1400" height="440.1"/>
		</g>
	</g>
	<path fill="#65838F" d="M0,235.5l121,199c8,13.1,12,28.2,11.4,43.5c-1.9,49.1,38.8,146.2,60.8,169.8
		c106.9,115.2,52.9,133.9,96.8,241c17.8,43.4,51.3,74.2,92.2,91.3h163.2c16.9-6.5,33.4-15,49.1-25.6
		c109.9-74.4,143.6-225.7,54.7-307.1c-64.8-59.4-108.3-63.4-146.2-107.7l35.8-24.2c6-4,7.5-12.1,3.5-18.1l-80.1-118.2
		c-4-6-12.1-7.5-18.1-3.5l-50.9,34.4c-6.9-3.2-14-5.8-20.8-7.6c-16.7-4.4-31.6-13.9-42-27.7L47.6,0H0V235.5z M439.7,415.3
		c6-4,14.1-2.5,18.1,3.5l45.9,67.7c4,6,2.5,14.1-3.5,18.1l-15.1,10.2c-7-11.4-13.8-24.7-20.7-40.8c-6.7-15.6-22.7-32.9-42.1-47
		L439.7,415.3z"/>
	<g>
		<path fill="#3D606D" d="M948.3,911.8c0,0-261-392.6-348-362.8s-360,423-360,423l148.4-1l39-71l62.1-50.6l5.9-35.4l108-133.5
			l200.7,290.1h433.3L948.3,911.8z"/>
		<path fill="#C0C8CC" d="M1259.5,386.3l-263.9,21.4l-38,27.8l-189.3,33.9L559.5,582.5L552,633l63,21l61-25l4-15l120-58l23,8
			l6.6-11.6l200-18.7L1013.9,723l-44.3,36.7l-5.7,59.7L873.6,907l364,73l142.4-39V559.6L1259.5,386.3z M1302.6,845.2V888h-30.1
			l16.1-205.6l28,138.8L1302.6,845.2z"/>
		<g>
			<polygon fill="#ADB8BC" points="1002,460 966,498.8 828,511 821,547.4 778,490 764,490 789,547.4 751,529 734,551 734,571.7 
				657,606.5 632.3,589 585.4,624 590.4,645.8 615,654 676,629 680,614 800,556 823,564 829.6,552.4 1029.6,533.7 1049,460 			"/>
			<polygon fill="#ADB8BC" points="1259.5,386.3 1240.1,387.8 1165.1,433 1175.8,490 1213,465 1218.3,503 1239.6,483 1282,516 
				1226,596 1288.6,682.4 1298,728.8 1364.1,804.1 1364.1,823.6 1310.8,792.6 1316.6,821 1364.1,868.6 1355.1,892.6 1302.6,845.2 
				1302.6,888 1272.5,888 1283.6,745.7 1029.6,533.7 1026.6,570 1218.3,762.9 1175.8,809.5 1104.9,715.6 1029.6,694.6 1018,673.7 
				1013.9,723 969.6,759.7 963.9,819.4 873.6,907 1025,980 1208.8,974.2 1380,941 1380,559.6 			"/>
		</g>
		<path fill="#C0C8CC" d="M1239.6,276.4l19.9,119l-75.5,74c0,0,13.1-45.5-7.7-62.4c0,0,16.2-23.9-11.2-17.6
			c-18.2,4.2-18.5-0.9-18.5-0.9l34.2-57.8l37-54.3H1239.6z"/>
		<path fill="#DAD7C5" d="M1232,211.4l-28.9,4.7l-4.1-32.4c0,0-77.8-21.8-103.2,15.9c-6.7,9.9-10.6,55.2-10.6,55.2s27.4,17-1.2,80
			l9.9,2.7c0,0,18.5-11.7,23.7-2.7c3.1,5.3-2.8,24.1-2.8,24.1l13.5,20.8l-3.7,27.3l23.1-2l71.5-63.2l-5.4-42.1l25.9-2.3L1232,211.4z
			"/>
		<g>
			<path fill="#C0C8CC" d="M1117.4,334.8c3.1,5.3-2.8,24.1-2.8,24.1l1.1,1.6l10.2-30.3l-13.4-10.8l-28.7,15.3l0,0l9.9,2.7
				C1093.7,337.5,1112.3,325.8,1117.4,334.8z"/>
			<polygon fill="#C0C8CC" points="1128.1,379.7 1127,388.4 1139.8,378 1125.3,375.4 			"/>
			<path fill="#C0C8CC" d="M1239.6,297.3l-7.6-85.9l-28.9,4.7l-4.1-32.4c0,0-54.2-15.2-86.9,1.7l40.6,11.5l-15.9,60.8l13.4,18.7
				l-9.8,18.3l21.4,68.3l-14.2,41.9l71.5-63.2l-5.4-42.1L1239.6,297.3z"/>
		</g>
		<path fill="#507282" d="M1102.8,262.3l8,7.2c0,0,30.4-8.8,46.1-8.1C1156.9,261.5,1131.9,252.1,1102.8,262.3z"/>
		<polygon fill="#507282" points="1122.9,278.1 1146.6,276.4 1127.1,285.5 1126.1,280 1121.6,280.1 		"/>
		<path fill="#507282" d="M1091.2,212.4c0,0,30.8-18.8,35.6-16.8c4.8,2,4,13.3,4,13.3s34.2-7.5,38.8,3.1
			c4.6,10.6,15.6,86.7,15.6,86.7l15.3-6.9l-5.3-5c0,0,12.6-2.6,10.2-16l-10,4.7c0,0,13.4-14.1,11.9-25.1c0,0,11.4-9.3,15,4
			c3.6,13.2,7.2,28.8-8.7,45.2l42.2,1.5c0,0-7.6-58.3,13.1-59.7l-12-11.4c0,0,29.7-3.2,30.7-19.8s-23.9-21.1-23.9-21.1
			s6.2-26.9-7-37.9c-13.2-11.1-31.2,0.3-50.3-7.8c-19.1-8.1-16.2-51.8-46.1-44.3c-29.9,7.5-24,26-24,26s-41.5-51.4-54.9-24.5
			c-13.4,26.9,7,50.2,7,50.2s-51-2.2-45.2,28.5c5.8,30.7,29.1,23.1,29.1,23.1s-13.2,4.2-11.4,16.9c1.7,12.7,21.3,12.8,21.3,12.8
			s-21.5-7.9-4.6-24.1C1094.4,191.8,1091.2,212.4,1091.2,212.4z"/>
		<polygon fill="#DAD7C5" points="612.8,571.7 567,607.1 522,670.7 511.4,716.4 519.9,729.3 527.3,726.2 523,715.2 525.4,704.2 
			537.7,734.8 548.6,734.8 553.5,720.1 553.5,741.5 569.4,744.5 579.8,708.7 571.9,757.4 586.5,762.9 605.5,708.7 601,736.9 
			613.9,736.1 632.3,684.1 621.9,583.3 		"/>
		<g>
			<polygon fill="#C0C8CC" points="576.3,730.4 579.8,708.7 571.9,757.4 586.5,762.9 598.9,727.4 			"/>
			<polygon fill="#C0C8CC" points="552,704.3 525,699.7 518.2,686.8 511.4,716.4 519.9,729.3 527.3,726.2 523,715.2 525.4,704.2 
				537.7,734.8 548.6,734.8 553.5,720.1 553.5,741.5 569.4,744.5 579.8,708.7 552,713.7 			"/>
			<polygon fill="#C0C8CC" points="622.5,609 598.9,589 575.9,600.2 619.7,632.3 605.5,708.7 601,736.9 613.9,736.1 632.3,684.1 			
				"/>
		</g>
		<polygon fill="#ADB8BC" points="1153.3,437.3 1125.3,454.3 1153.3,456.3 		"/>
		<polygon fill="#507282" points="887.2,639.1 837.7,621.1 511.4,972 638,972 679.1,932 725,909 730.1,882.2 837,778 882.9,972 
			1049,972 		"/>
		<path fill="#3D606D" d="M1263.7,189c0,0,6.2-26.9-7-37.9c-6-5-13-5.4-20.7-5.1c-1.7,38.6-25.3,72.3-60.4,92.3
			c4.7,25.8,9.7,60.5,9.7,60.5l15.3-6.9l-5.3-5c0,0,12.6-2.6,10.2-16l-10,4.7c0,0,13.4-14.1,11.9-25.1c0,0,11.4-9.3,15,4
			s7.2,28.8-8.7,45.2l42.2,1.5c0,0-7.6-58.3,13.1-59.7l-12-11.4c0,0,29.7-3.2,30.7-19.8C1288.5,193.6,1263.7,189,1263.7,189z"/>
	</g>
	<path fill="#FFFFFF" d="M0,0l0,980h1400V0L0,0z M28.3,88.1c0-37.8,30.6-68.4,68.4-68.4h1206.7c37.8,0,68.4,30.6,68.4,68.4v803.7
		c0,37.8-30.6,68.4-68.4,68.4H96.6c-37.8,0-68.4-30.6-68.4-68.4V88.1z"/>
</g>
</svg>
